<svg id="svg" fill="#000000" stroke="#000000" width="200px" height="200px" version="1.1" viewBox="144 144 512 512" xmlns="http://www.w3.org/2000/svg">
    <g id="IconSvg_bgCarrier" stroke-width="0"></g>
    <g id="IconSvg_tracerCarrier" stroke-linecap="round" stroke-linejoin="round" stroke="#CCCCCC"></g>
     <g id="IconSvg_iconCarrier">
      <path xmlns="http://www.w3.org/2000/svg" d="m594.36 309.63c-10.691-2.9297-21.129-6.7227-31.207-11.336-0.71484-0.27344-1.4844-0.60547-2.2578-0.99219-0.097657-0.22266-0.22656-0.42578-0.38672-0.60547-10.473-12.188-26.395-18.258-42.324-16.125-22.785 2.7539-47.445 20.805-60.379 44.031-31.793 14.887-60.625 35.418-85.09 60.598-17.504 3.5781-31.426 13.32-44.914 22.73h0.003906c-9.8945 7.5078-20.648 13.805-32.035 18.77-6.4844 3.3789-13.133 6.4258-19.922 9.1367-36.602 15.852-69.68 31.152-72.102 45.242-0.60938 3.4883 0.69141 7.0352 3.4102 9.3008 0.50781 0.47266 1.1797 0.73047 1.8711 0.71484 0.48828 0.007813 0.96484-0.125 1.375-0.38672 23.336-13.648 47.391-21.465 72.816-29.723 7.2109-2.3672 14.586-4.7891 21.961-7.375l0.003906 0.003907c-4.4219 6.2852-8.0977 13.066-10.953 20.199-0.37891 0.98828-0.15625 2.1094 0.57031 2.8828 0.72266 0.77344 1.8281 1.0625 2.8398 0.75l7.9258-2.5312c20.328-7.168 41.25-12.508 62.523-15.965 1.4844-0.16406 2.918-0.38672 4.4023-0.55078h0.003906c12.461 13.203 29.957 20.473 48.102 19.98 7.1719-0.039062 14.316-0.86719 21.301-2.4766 0.10938 0.054688 0.10938 0.16406 0.16406 0.21875 7.2109 5.5586 14.309 11.117 21.41 16.898h0.003907c-7.8516-1.1758-15.867 0.29687-22.789 4.1836-1.0664 0.625-1.582 1.8867-1.2617 3.082 0.32031 1.1953 1.4023 2.0312 2.6406 2.0352 0.47656 0.003906 0.94922-0.10938 1.375-0.32812 8.1172-4.5703 17.895-5.1211 26.473-1.4883 1.2969 0.57422 2.8125 0.042969 3.4688-1.2109 6.6523-2.332 13.926-2.1758 20.473 0.44141 0.33984 0.10938 0.69141 0.16406 1.0469 0.16406 1.1211 0.035156 2.1406-0.65234 2.5312-1.7031 0.28516-0.67188 0.28906-1.4297 0.007812-2.1016-0.27734-0.67188-0.81641-1.207-1.4922-1.4766-7.3203-2.9102-15.41-3.2578-22.953-0.99219-8.1992-6.8242-16.238-13.098-24.328-19.375 26.23-8.0703 50.539-21.406 71.441-39.188 28.512-23.5 28.402-50.527 28.289-72.266-0.054688-14.805-0.10938-27.629 8.6406-36.051 6.7695-6.5508 18.824-10.402 36.82-11.723h0.003907c1.3398-0.097656 2.4102-1.1523 2.5312-2.4883 0.125-1.3359-0.73828-2.5664-2.0352-2.9062z"></path>

      </g>
      </svg>