<svg id="svg" fill="#000000" stroke="#000000" width="800" height="800" version="1.1" viewBox="144 144 512 512" xmlns="http://www.w3.org/2000/svg">
    <g id="IconSvg_bgCarrier" stroke-width="0"></g>
    <g id="IconSvg_tracerCarrier" stroke-linecap="round" stroke-linejoin="round" stroke="#CCCCCC" stroke-width="0">
      <path xmlns="http://www.w3.org/2000/svg" d="m555.57 247.86c-0.64062-0.67578-1.6289-0.89453-2.4961-0.55469-6.4766 2.5312-13.18 4.4336-20.016 5.6875 7.9414-7.1016 14.246-15.84 18.488-25.609 0.31641-0.72656 0.24609-1.5586-0.18359-2.2188-0.43359-0.64844-1.1641-1.0312-1.9414-1.0195-7.0625 0.72266-13.738 3.5781-19.137 8.1836-3.3867 2.543-7.0859 4.6406-11.004 6.2422 10.074-8.8203 16.73-20.895 18.816-34.117 0.14453-0.91406-0.27734-1.8281-1.0664-2.3125-0.78516-0.48438-1.7891-0.44922-2.5391 0.09375-9.9375 6.8867-20.016 13.59-30.094 19.969 2.9258-7.2969 3.8672-15.242 2.7266-23.02-0.13281-0.86328-0.74219-1.5781-1.5742-1.8516-0.83203-0.27734-1.7539-0.042969-2.3555 0.60156-7.5352 7.6719-15.023 15.301-22.559 22.93-6.6094 6.75-13.223 13.453-19.832 20.199-0.23047-1.1562-0.50781-2.3125-0.83203-3.5117-0.22266-0.68359-0.72656-1.2383-1.3867-1.5234-0.67188-0.24609-1.418-0.17578-2.0352 0.18359-16.18 9.707-27.781 24.316-38.969 38.414-2.3125 2.8672-4.5781 5.7773-6.8867 8.5977-12.52 6.9414-25.387 13.238-38.555 18.863-7.7656 3.5117-15.762 7.0742-23.531 10.91-28.66-24.73-48.723-14.332-69.988-3.2344-10.125 5.2695-11.926 9.3398-23.992 12.391-6.1484 1.5703-9.4766 0.37109-10.816 2.8203-0.32422 0.60156 0.69141 2.0352 1.7109 2.3125 12.113 3.2812 27.922 5.918 37.766 7.5352 0.14062 0.09375 2.082 1.4336 2.2188 1.4805 5.5 13.453 14.191 19.832 27.457 25.656 6.0547 27.414 26.117 45.395 45.535 62.867 4.8984 4.3438 9.9375 8.9219 14.652 13.5 0.60156 0.60156 1.1562 1.25 1.7578 1.8477l0.003907-0.007812c-12.695 3.8867-26.34 3.2812-38.645-1.7109-0.57813-0.23047-1.2227-0.23047-1.8008 0-0.5625 0.23828-1.0117 0.6875-1.25 1.25-3.75 9.3047-10.355 17.188-18.859 22.512-1.082 0.67969-1.4102 2.1016-0.74219 3.1875 0.42578 0.67188 1.1523 1.0859 1.9414 1.1094 0.44531 0 0.87891-0.12891 1.25-0.36719 8.6719-5.4297 15.555-13.293 19.785-22.605 0.46094 0.14062 0.87891 0.27734 1.3398 0.41797v-0.003907c-0.0625 0.14844-0.078125 0.30859-0.046875 0.46484 0.86719 6.9922 0.37891 14.086-1.4336 20.895-0.3125 1.2227 0.40625 2.4727 1.6211 2.8203 0.19531 0.046875 0.39453 0.078125 0.59766 0.089843 1.0586 0.011719 1.9844-0.69141 2.2656-1.707 1.8008-6.9062 2.3633-14.074 1.6641-21.176 1.8945 0.50781 3.8359 0.87891 5.7773 1.2031h0.003907c-0.019531 0.41797 0.074219 0.83594 0.27734 1.2031l8.9688 15.809h-0.003906c0.41016 0.71484 1.168 1.1562 1.9883 1.1562 0.41016 0.007812 0.8125-0.10547 1.1562-0.32422 0.53906-0.29688 0.93359-0.79688 1.1016-1.3867 0.16406-0.58984 0.082031-1.2227-0.22266-1.7578l-7.9961-14.098c7.9648 0.59766 15.973-0.35938 23.574-2.8203 0.26953-0.09375 0.51953-0.23438 0.73828-0.41406 5.2969 8.2656 9.4922 17.184 12.484 26.531 2.2031 6.3516 4.7656 12.57 7.6719 18.633 0 0.046875-0.046875 0.09375-0.09375 0.18359-1.7578 6.5195-10.91 88.387 1.5273 93.008 3.5117 1.293 6.6562-2.0352 9.3828-6.7031 1.8477 6.0078 4.3438 8.9688 7.5352 9.0625h0.18359c3.9297 0 6.75-4.5781 8.7383-9.8477 2.3281 3.6016 5.6992 6.4062 9.6602 8.043 1.0781 0.44922 2.3164 0.007812 2.8672-1.0156 1.3203-2.3867 2.2695-4.9609 2.8203-7.6289 2.1836 2.3633 5.2422 3.7344 8.4609 3.7891 0.84375 0.011719 1.6836-0.097656 2.4961-0.32031 1.0703-0.23828 1.8164-1.2148 1.7539-2.3125-1.6641-39.152-10.586-69.711-27.273-93.426-0.1875-0.27344-0.44141-0.49609-0.73828-0.64453 2.3594-21.934 1.8477-44.078-1.5273-65.875 5.082-0.59766 9.8594-2.7344 13.691-6.1211s6.5391-7.8633 7.7578-12.832c2.5508 0.24609 5.1133-0.33594 7.3047-1.6641 4.4883-3.3555 7.625-8.2109 8.832-13.684 0.51562-0.27734 0.91406-0.73828 1.1094-1.293 5.4531 0.60156 8.7383-5.0391 11-9.0625 1.0078-2.0469 2.3203-3.9297 3.8828-5.5938 0.14453-0.007813 0.28516-0.039063 0.41797-0.089844 0 0.046875 0.046876 0.046875 0.09375 0.046875l-0.003906-0.003906c0.44922-0.015625 0.88281-0.16016 1.25-0.41406 4.5234-0.97656 8.375-3.9258 10.492-8.043 1.4297-3.5938 1.3477-7.6094-0.23047-11.141 4.3125-1.3555 8.1367-3.9336 11.008-7.4219 2.8711-3.4883 4.668-7.7344 5.1719-12.227 5.582-0.0625 10.57-3.4961 12.621-8.6875 1.7383-3.8359 1.6016-8.2578-0.37109-11.977 8.7461-3.457 15.504-10.621 18.445-19.551 0.375-1.1719-0.23438-2.4336-1.3867-2.8672l-4.9922-1.8945c-0.55469-0.23047-1.0625-0.41406-1.6172-0.64844 12.434-6.4102 22.23-16.977 27.688-29.863 0.32812-0.85938 0.13281-1.832-0.50781-2.4961z"></path>

      </g>
     <g id="IconSvg_iconCarrier">
      <path xmlns="http://www.w3.org/2000/svg" d="m555.57 247.86c-0.64062-0.67578-1.6289-0.89453-2.4961-0.55469-6.4766 2.5312-13.18 4.4336-20.016 5.6875 7.9414-7.1016 14.246-15.84 18.488-25.609 0.31641-0.72656 0.24609-1.5586-0.18359-2.2188-0.43359-0.64844-1.1641-1.0312-1.9414-1.0195-7.0625 0.72266-13.738 3.5781-19.137 8.1836-3.3867 2.543-7.0859 4.6406-11.004 6.2422 10.074-8.8203 16.73-20.895 18.816-34.117 0.14453-0.91406-0.27734-1.8281-1.0664-2.3125-0.78516-0.48438-1.7891-0.44922-2.5391 0.09375-9.9375 6.8867-20.016 13.59-30.094 19.969 2.9258-7.2969 3.8672-15.242 2.7266-23.02-0.13281-0.86328-0.74219-1.5781-1.5742-1.8516-0.83203-0.27734-1.7539-0.042969-2.3555 0.60156-7.5352 7.6719-15.023 15.301-22.559 22.93-6.6094 6.75-13.223 13.453-19.832 20.199-0.23047-1.1562-0.50781-2.3125-0.83203-3.5117-0.22266-0.68359-0.72656-1.2383-1.3867-1.5234-0.67188-0.24609-1.418-0.17578-2.0352 0.18359-16.18 9.707-27.781 24.316-38.969 38.414-2.3125 2.8672-4.5781 5.7773-6.8867 8.5977-12.52 6.9414-25.387 13.238-38.555 18.863-7.7656 3.5117-15.762 7.0742-23.531 10.91-28.66-24.73-48.723-14.332-69.988-3.2344-10.125 5.2695-11.926 9.3398-23.992 12.391-6.1484 1.5703-9.4766 0.37109-10.816 2.8203-0.32422 0.60156 0.69141 2.0352 1.7109 2.3125 12.113 3.2812 27.922 5.918 37.766 7.5352 0.14062 0.09375 2.082 1.4336 2.2188 1.4805 5.5 13.453 14.191 19.832 27.457 25.656 6.0547 27.414 26.117 45.395 45.535 62.867 4.8984 4.3438 9.9375 8.9219 14.652 13.5 0.60156 0.60156 1.1562 1.25 1.7578 1.8477l0.003907-0.007812c-12.695 3.8867-26.34 3.2812-38.645-1.7109-0.57813-0.23047-1.2227-0.23047-1.8008 0-0.5625 0.23828-1.0117 0.6875-1.25 1.25-3.75 9.3047-10.355 17.188-18.859 22.512-1.082 0.67969-1.4102 2.1016-0.74219 3.1875 0.42578 0.67188 1.1523 1.0859 1.9414 1.1094 0.44531 0 0.87891-0.12891 1.25-0.36719 8.6719-5.4297 15.555-13.293 19.785-22.605 0.46094 0.14062 0.87891 0.27734 1.3398 0.41797v-0.003907c-0.0625 0.14844-0.078125 0.30859-0.046875 0.46484 0.86719 6.9922 0.37891 14.086-1.4336 20.895-0.3125 1.2227 0.40625 2.4727 1.6211 2.8203 0.19531 0.046875 0.39453 0.078125 0.59766 0.089843 1.0586 0.011719 1.9844-0.69141 2.2656-1.707 1.8008-6.9062 2.3633-14.074 1.6641-21.176 1.8945 0.50781 3.8359 0.87891 5.7773 1.2031h0.003907c-0.019531 0.41797 0.074219 0.83594 0.27734 1.2031l8.9688 15.809h-0.003906c0.41016 0.71484 1.168 1.1562 1.9883 1.1562 0.41016 0.007812 0.8125-0.10547 1.1562-0.32422 0.53906-0.29688 0.93359-0.79688 1.1016-1.3867 0.16406-0.58984 0.082031-1.2227-0.22266-1.7578l-7.9961-14.098c7.9648 0.59766 15.973-0.35938 23.574-2.8203 0.26953-0.09375 0.51953-0.23438 0.73828-0.41406 5.2969 8.2656 9.4922 17.184 12.484 26.531 2.2031 6.3516 4.7656 12.57 7.6719 18.633 0 0.046875-0.046875 0.09375-0.09375 0.18359-1.7578 6.5195-10.91 88.387 1.5273 93.008 3.5117 1.293 6.6562-2.0352 9.3828-6.7031 1.8477 6.0078 4.3438 8.9688 7.5352 9.0625h0.18359c3.9297 0 6.75-4.5781 8.7383-9.8477 2.3281 3.6016 5.6992 6.4062 9.6602 8.043 1.0781 0.44922 2.3164 0.007812 2.8672-1.0156 1.3203-2.3867 2.2695-4.9609 2.8203-7.6289 2.1836 2.3633 5.2422 3.7344 8.4609 3.7891 0.84375 0.011719 1.6836-0.097656 2.4961-0.32031 1.0703-0.23828 1.8164-1.2148 1.7539-2.3125-1.6641-39.152-10.586-69.711-27.273-93.426-0.1875-0.27344-0.44141-0.49609-0.73828-0.64453 2.3594-21.934 1.8477-44.078-1.5273-65.875 5.082-0.59766 9.8594-2.7344 13.691-6.1211s6.5391-7.8633 7.7578-12.832c2.5508 0.24609 5.1133-0.33594 7.3047-1.6641 4.4883-3.3555 7.625-8.2109 8.832-13.684 0.51562-0.27734 0.91406-0.73828 1.1094-1.293 5.4531 0.60156 8.7383-5.0391 11-9.0625 1.0078-2.0469 2.3203-3.9297 3.8828-5.5938 0.14453-0.007813 0.28516-0.039063 0.41797-0.089844 0 0.046875 0.046876 0.046875 0.09375 0.046875l-0.003906-0.003906c0.44922-0.015625 0.88281-0.16016 1.25-0.41406 4.5234-0.97656 8.375-3.9258 10.492-8.043 1.4297-3.5938 1.3477-7.6094-0.23047-11.141 4.3125-1.3555 8.1367-3.9336 11.008-7.4219 2.8711-3.4883 4.668-7.7344 5.1719-12.227 5.582-0.0625 10.57-3.4961 12.621-8.6875 1.7383-3.8359 1.6016-8.2578-0.37109-11.977 8.7461-3.457 15.504-10.621 18.445-19.551 0.375-1.1719-0.23438-2.4336-1.3867-2.8672l-4.9922-1.8945c-0.55469-0.23047-1.0625-0.41406-1.6172-0.64844 12.434-6.4102 22.23-16.977 27.688-29.863 0.32812-0.85938 0.13281-1.832-0.50781-2.4961z"></path>

      </g>
      </svg>